<?xml version="1.0" encoding="iso-8859-1"?>
<!-- Generator: Adobe Illustrator 19.0.0, SVG Export Plug-In . SVG Version: 6.00 Build 0)  -->
<svg version="1.1" id="Capa_1" xmlns="http://www.w3.org/2000/svg" xmlns:xlink="http://www.w3.org/1999/xlink" x="0px" y="0px"
	 viewBox="0 0 522.462 522.462" style="enable-background:new 0 0 522.462 522.462;" xml:space="preserve">
<g>
	<path d="M359.192,0H163.269c-30.02,0-54.423,24.425-54.423,54.423v413.615c0,29.998,24.403,54.423,54.423,54.423h195.923
		c29.998,0,54.423-24.425,54.423-54.423V54.423C413.615,24.425,389.19,0,359.192,0z M206.808,43.538h108.846
		c6.008,0,10.885,4.876,10.885,10.885s-4.876,10.885-10.885,10.885H206.808c-6.008,0-10.885-4.876-10.885-10.885
		S200.799,43.538,206.808,43.538z M261.231,489.808c-12.017,0-21.769-9.731-21.769-21.769c0-12.038,9.753-21.769,21.769-21.769
		c12.038,0,21.769,9.731,21.769,21.769C283,480.077,273.269,489.808,261.231,489.808z M391.846,413.615H130.615V108.846h261.231
		V413.615z"/>
</g>
<g>
</g>
<g>
</g>
<g>
</g>
<g>
</g>
<g>
</g>
<g>
</g>
<g>
</g>
<g>
</g>
<g>
</g>
<g>
</g>
<g>
</g>
<g>
</g>
<g>
</g>
<g>
</g>
<g>
</g>
</svg>
